/* src/logo.svg */
<svg xmlns="http://www.w3.org/2000/svg" viewBox="0 0 841.9 595.3">
  <g fill="#61DAFB">
    <path d="M666.3 296.5c0-41.2-33.4-74.6-74.6-74.6-41.2 0-74.6 33.4-74.6 74.6s33.4 74.6 74.6 74.6c41.2 0 74.6-33.4 74.6-74.6zm-74.6 54.6c-30.1 0-54.6-24.5-54.6-54.6s24.5-54.6 54.6-54.6 54.6 24.5 54.6 54.6-24.5 54.6-54.6 54.6z"/>
    <path d="M667.9 296.5c0-41.2-33.4-74.6-74.6-74.6-41.2 0-74.6 33.4-74.6 74.6s33.4 74.6 74.6 74.6c41.2 0 74.6-33.4 74.6-74.6zm-74.6 54.6c-30.1 0-54.6-24.5-54.6-54.6s24.5-54.6 54.6-54.6 54.6 24.5 54.6 54.6-24.5 54.6-54.6 54.6z"/>
  </g>
</svg>
